<svg width="251" height="45" viewBox="0 0 251 45" fill="none" xmlns="http://www.w3.org/2000/svg">
<g clip-path="url(#clip0_51_31)">
<path d="M250.08 0H0V45H250.08V0Z" fill="#19509B"/>
<path d="M133.32 20.6401H152.39V25.6501H145.99V40.9401H139.72V25.6501H133.32V20.6401V20.6401Z" fill="white"/>
<path d="M154.91 20.6401H163.16L166.34 32.9901L169.5 20.6401H177.74V40.9401H172.6V25.4601L168.64 40.9401H163.99L160.04 25.4601V40.9401H154.9V20.6401H154.91Z" fill="white"/>
<path d="M180.66 34.22L186.63 33.85C186.76 34.82 187.02 35.56 187.42 36.07C188.07 36.89 188.99 37.3 190.19 37.3C191.09 37.3 191.78 37.09 192.26 36.67C192.74 36.25 192.99 35.76 192.99 35.21C192.99 34.66 192.76 34.21 192.3 33.8C191.84 33.38 190.77 32.99 189.09 32.62C186.34 32 184.38 31.18 183.21 30.16C182.03 29.14 181.44 27.83 181.44 26.24C181.44 25.2 181.74 24.21 182.35 23.28C182.95 22.35 183.86 21.62 185.08 21.09C186.29 20.56 187.96 20.29 190.07 20.29C192.66 20.29 194.64 20.77 196 21.74C197.36 22.7 198.17 24.24 198.43 26.34L192.52 26.69C192.36 25.78 192.03 25.11 191.53 24.7C191.03 24.28 190.33 24.08 189.45 24.08C188.72 24.08 188.17 24.23 187.8 24.54C187.43 24.85 187.25 25.23 187.25 25.67C187.25 25.99 187.4 26.28 187.71 26.54C188.01 26.81 188.71 27.06 189.81 27.29C192.55 27.88 194.52 28.48 195.7 29.08C196.89 29.68 197.75 30.43 198.29 31.33C198.83 32.23 199.1 33.23 199.1 34.33C199.1 35.63 198.74 36.83 198.02 37.93C197.3 39.03 196.29 39.86 195 40.43C193.71 41 192.08 41.28 190.11 41.28C186.66 41.28 184.27 40.62 182.94 39.29C181.61 37.96 180.86 36.27 180.68 34.22H180.66Z" fill="white"/>
<path d="M201.3 30.8C201.3 27.49 202.22 24.91 204.07 23.06C205.92 21.21 208.49 20.29 211.78 20.29C215.07 20.29 217.76 21.2 219.59 23.01C221.42 24.82 222.33 27.36 222.33 30.63C222.33 33 221.93 34.95 221.13 36.47C220.33 37.99 219.18 39.17 217.67 40.01C216.16 40.85 214.28 41.28 212.03 41.28C209.78 41.28 207.85 40.92 206.35 40.19C204.85 39.46 203.63 38.31 202.7 36.73C201.77 35.15 201.3 33.18 201.3 30.8V30.8ZM207.57 30.83C207.57 32.88 207.95 34.35 208.71 35.25C209.47 36.15 210.51 36.59 211.82 36.59C213.13 36.59 214.21 36.15 214.95 35.27C215.69 34.39 216.06 32.82 216.06 30.55C216.06 28.64 215.67 27.24 214.9 26.36C214.13 25.48 213.08 25.04 211.76 25.04C210.44 25.04 209.48 25.49 208.71 26.38C207.94 27.28 207.56 28.76 207.56 30.82L207.57 30.83Z" fill="white"/>
<path d="M225.69 20.6401H231.55L239.19 31.8701V20.6401H245.1V40.9401H239.19L231.59 29.7901V40.9401H225.69V20.6401Z" fill="white"/>
<path d="M245.1 15.3198H133.32V17.8698H245.1V15.3198Z" fill="white"/>
<path d="M245.1 10.2002H133.32V12.7502H245.1V10.2002Z" fill="white"/>
<path d="M245.1 5.08984H133.32V7.63984H245.1V5.08984Z" fill="white"/>
</g>
<defs>
<clipPath id="clip0_51_31">
<rect width="250.08" height="45" fill="white"/>
</clipPath>
</defs>
</svg>
