<svg width="300" height="45" viewBox="0 0 300 45" fill="none" xmlns="http://www.w3.org/2000/svg">
<g clip-path="url(#clip0_51_16)">
<path d="M300 0H0V45H300V0Z" fill="#19509B"/>
<path d="M183.23 19.9497H202.3V24.9597H195.9V40.2497H189.63V24.9597H183.23V19.9497V19.9497Z" fill="white"/>
<path d="M204.82 19.9497H213.07L216.25 32.2997L219.41 19.9497H227.65V40.2497H222.51V24.7697L218.55 40.2497H213.9L209.95 24.7697V40.2497H204.81V19.9497H204.82Z" fill="white"/>
<path d="M230.58 33.5399L236.55 33.1699C236.68 34.1399 236.94 34.8799 237.34 35.3899C237.99 36.2099 238.91 36.6199 240.11 36.6199C241.01 36.6199 241.7 36.4099 242.18 35.9899C242.66 35.5699 242.91 35.0799 242.91 34.5299C242.91 33.9799 242.68 33.5299 242.22 33.1199C241.76 32.6999 240.69 32.3099 239.01 31.9399C236.26 31.3199 234.3 30.4999 233.13 29.4799C231.95 28.4599 231.36 27.1499 231.36 25.5599C231.36 24.5199 231.66 23.5299 232.27 22.5999C232.87 21.6699 233.78 20.9399 235 20.4099C236.21 19.8799 237.88 19.6099 239.99 19.6099C242.58 19.6099 244.56 20.0899 245.92 21.0599C247.28 22.0199 248.09 23.5599 248.35 25.6599L242.44 26.0099C242.28 25.0999 241.95 24.4299 241.45 24.0199C240.95 23.5999 240.25 23.3999 239.37 23.3999C238.64 23.3999 238.09 23.5499 237.72 23.8599C237.35 24.1699 237.17 24.5499 237.17 24.9899C237.17 25.3099 237.32 25.5999 237.63 25.8599C237.93 26.1299 238.63 26.3799 239.73 26.6099C242.47 27.1999 244.44 27.7999 245.62 28.3999C246.81 28.9999 247.67 29.7499 248.21 30.6499C248.75 31.5499 249.02 32.5499 249.02 33.6499C249.02 34.9499 248.66 36.1499 247.94 37.2499C247.22 38.3499 246.21 39.1799 244.92 39.7499C243.63 40.3199 242 40.5999 240.03 40.5999C236.58 40.5999 234.19 39.9399 232.86 38.6099C231.53 37.2799 230.78 35.5899 230.6 33.5399H230.58Z" fill="white"/>
<path d="M251.22 30.1199C251.22 26.8099 252.14 24.2299 253.99 22.3799C255.84 20.5299 258.41 19.6099 261.7 19.6099C264.99 19.6099 267.68 20.5199 269.51 22.3299C271.34 24.1399 272.25 26.6799 272.25 29.9499C272.25 32.3199 271.85 34.2699 271.05 35.7899C270.25 37.3099 269.1 38.4899 267.59 39.3299C266.08 40.1699 264.2 40.5999 261.95 40.5999C259.7 40.5999 257.77 40.2399 256.27 39.5099C254.77 38.7799 253.55 37.6299 252.62 36.0499C251.69 34.4699 251.22 32.4999 251.22 30.1199V30.1199ZM257.49 30.1499C257.49 32.1999 257.87 33.6699 258.63 34.5699C259.39 35.4699 260.43 35.9099 261.74 35.9099C263.05 35.9099 264.13 35.4699 264.87 34.5899C265.61 33.7099 265.98 32.1399 265.98 29.8699C265.98 27.9599 265.59 26.5599 264.82 25.6799C264.05 24.7999 263 24.3599 261.68 24.3599C260.36 24.3599 259.4 24.8099 258.63 25.6999C257.86 26.5999 257.48 28.0799 257.48 30.1399L257.49 30.1499Z" fill="white"/>
<path d="M275.6 19.9497H281.46L289.1 31.1797V19.9497H295.01V40.2497H289.1L281.5 29.0997V40.2497H275.6V19.9497Z" fill="white"/>
<path d="M295.01 14.6299H183.23V17.1799H295.01V14.6299Z" fill="white"/>
<path d="M295.01 9.52002H183.23V12.07H295.01V9.52002Z" fill="white"/>
<path d="M295.01 4.3999H183.23V6.9499H295.01V4.3999Z" fill="white"/>
</g>
<defs>
<clipPath id="clip0_51_16">
<rect width="300" height="45" fill="white"/>
</clipPath>
</defs>
</svg>
